<svg width="20" height="20" viewBox="0 0 20 20" fill="none" xmlns="http://www.w3.org/2000/svg">
<g id="call">
<mask id="mask0_446_305" style="mask-type:alpha" maskUnits="userSpaceOnUse" x="0" y="0" width="20" height="20">
<rect id="Bounding box" width="20" height="20" fill="#F7F3F8"/>
</mask>
<g mask="url(#mask0_446_305)">
<path id="call_2" d="M15.4716 16.5626C13.9567 16.4376 12.5005 16.0378 11.103 15.3631C9.7056 14.6884 8.43905 13.7832 7.30337 12.6476C6.17303 11.5119 5.274 10.2467 4.60626 8.85191C3.93853 7.45715 3.54216 6.0023 3.41716 4.48735C3.38938 4.19568 3.47619 3.94088 3.67758 3.72293C3.87897 3.50498 4.12549 3.396 4.41716 3.396H6.59341C6.84555 3.396 7.06243 3.47159 7.24406 3.62277C7.42568 3.77395 7.55228 3.97133 7.62385 4.21491L8.05974 5.97931C8.09287 6.16521 8.08245 6.34684 8.02849 6.52418C7.97455 6.70153 7.88667 6.84576 7.76487 6.95687L5.8402 8.83027C6.15003 9.41146 6.49352 9.95847 6.87066 10.4713C7.2478 10.9841 7.66126 11.4638 8.11104 11.9104C8.55442 12.3538 9.0336 12.7646 9.54856 13.1428C10.0635 13.521 10.6196 13.865 11.2168 14.1748L13.1912 12.247C13.3076 12.1252 13.4412 12.044 13.5918 12.0034C13.7425 11.9628 13.9107 11.9564 14.0966 11.9841L15.7649 12.3511C16.017 12.4206 16.2165 12.5488 16.3634 12.7357C16.5103 12.9227 16.5838 13.1449 16.5838 13.4024V15.5626C16.5838 15.8543 16.4713 16.1008 16.2464 16.3022C16.0215 16.5036 15.7633 16.5904 15.4716 16.5626Z" fill="#D4C5D7"/>
</g>
</g>
</svg>
