<svg width="48" height="48" viewBox="0 0 48 48" fill="none" xmlns="http://www.w3.org/2000/svg">
<g id="Group 120">
<circle id="Ellipse 122" cx="24" cy="24" r="24" fill="#FDF5FF"/>
<g id="call">
<mask id="mask0_446_395" style="mask-type:alpha" maskUnits="userSpaceOnUse" x="10" y="10" width="28" height="28">
<rect id="Bounding box" x="10.7617" y="10.7588" width="26.4828" height="26.4828" fill="#5C087A"/>
</mask>
<g mask="url(#mask0_446_395)">
<path id="call_2" d="M31.2477 32.6898C29.2417 32.5243 27.3135 31.9948 25.4631 31.1015C23.6128 30.2081 21.9357 29.0095 20.4319 27.5057C18.9351 26.0019 17.7447 24.3266 16.8605 22.4798C15.9763 20.6329 15.4515 18.7065 15.286 16.7005C15.2492 16.3143 15.3641 15.9769 15.6308 15.6883C15.8975 15.3997 16.2239 15.2554 16.6101 15.2554H19.4918C19.8256 15.2554 20.1128 15.3555 20.3533 15.5556C20.5938 15.7558 20.7615 16.0172 20.8562 16.3397L21.4334 18.676C21.4773 18.9222 21.4635 19.1627 21.392 19.3975C21.3206 19.6324 21.2042 19.8233 21.043 19.9705L18.4944 22.4511C18.9047 23.2207 19.3595 23.945 19.8589 24.624C20.3583 25.3031 20.9058 25.9383 21.5013 26.5296C22.0884 27.1167 22.7229 27.6607 23.4048 28.1615C24.0867 28.6623 24.823 29.1178 25.6138 29.528L28.2281 26.9753C28.3823 26.814 28.5592 26.7065 28.7586 26.6527C28.9581 26.599 29.1809 26.5905 29.4271 26.6273L31.6361 27.1132C31.9699 27.2051 32.2341 27.3749 32.4286 27.6225C32.6231 27.87 32.7204 28.1643 32.7204 28.5052V31.3657C32.7204 31.7519 32.5715 32.0783 32.2737 32.345C31.9759 32.6116 31.6339 32.7266 31.2477 32.6898Z" fill="#5C087A"/>
</g>
</g>
</g>
</svg>
