<svg width="48" height="48" viewBox="0 0 48 48" fill="none" xmlns="http://www.w3.org/2000/svg">
<circle cx="24" cy="24" r="24" fill="#FDF5FF"/>
<mask id="mask0_446_397" style="mask-type:alpha" maskUnits="userSpaceOnUse" x="10" y="10" width="28" height="28">
<rect x="10.7617" y="10.7588" width="26.4828" height="26.4828" fill="#5C087A"/>
</mask>
<g mask="url(#mask0_446_397)">
<path d="M24.0104 23.8513C24.5004 23.8513 24.9173 23.6768 25.2611 23.3279C25.6048 22.979 25.7767 22.5595 25.7767 22.0696C25.7767 21.5796 25.6023 21.1627 25.2533 20.819C24.9044 20.4752 24.485 20.3033 23.995 20.3033C23.505 20.3033 23.0881 20.4778 22.7444 20.8267C22.4006 21.1756 22.2287 21.5951 22.2287 22.085C22.2287 22.575 22.4032 22.9919 22.7521 23.3357C23.101 23.6794 23.5205 23.8513 24.0104 23.8513ZM24.0027 34.0518C21.2998 31.7538 19.2726 29.615 17.9214 27.6355C16.5702 25.6559 15.8945 23.8273 15.8945 22.1494C15.8945 19.8973 16.6493 17.9691 18.1587 16.3649C19.6682 14.7606 21.6116 13.9585 23.9889 13.9585C26.3663 13.9585 28.3143 14.7606 29.8329 16.3649C31.3516 17.9691 32.1109 19.8973 32.1109 22.1494C32.1109 23.8273 31.44 25.6518 30.0982 27.6232C28.7564 29.5945 26.7245 31.7374 24.0027 34.0518Z" fill="#5C087A"/>
</g>
</svg>
