<svg width="48" height="48" viewBox="0 0 48 48" fill="none" xmlns="http://www.w3.org/2000/svg">
<g id="Group 121">
<circle id="Ellipse 121" cx="24" cy="24" r="24" fill="#FDF5FF"/>
<g id="mail">
<mask id="mask0_446_396" style="mask-type:alpha" maskUnits="userSpaceOnUse" x="10" y="10" width="28" height="28">
<rect id="Bounding box" x="10.7617" y="10.7588" width="26.4828" height="26.4828" fill="#5C087A"/>
</mask>
<g mask="url(#mask0_446_396)">
<path id="mail_2" d="M15.7389 31.3931C15.255 31.3931 14.8384 31.2184 14.489 30.8689C14.1396 30.5195 13.9648 30.1029 13.9648 29.6191V18.3809C13.9648 17.8971 14.1396 17.4805 14.489 17.1311C14.8384 16.7816 15.255 16.6069 15.7389 16.6069H32.2735C32.7758 16.6069 33.197 16.7816 33.5372 17.1311C33.8774 17.4805 34.0475 17.8971 34.0475 18.3809V29.6191C34.0475 30.1029 33.8774 30.5195 33.5372 30.8689C33.197 31.2184 32.7758 31.3931 32.2735 31.3931H15.7389ZM24.0062 24.836L32.6131 19.7708L32.4433 18.0414L24.0062 22.9793L15.5691 18.0414L15.3993 19.7708L24.0062 24.836Z" fill="#5C087A"/>
</g>
</g>
</g>
</svg>
