<svg width="20" height="20" viewBox="0 0 20 20" fill="none" xmlns="http://www.w3.org/2000/svg">
<g id="mail">
<mask id="mask0_446_299" style="mask-type:alpha" maskUnits="userSpaceOnUse" x="0" y="0" width="20" height="20">
<rect id="Bounding box" width="20" height="20" fill="#D9D9D9"/>
</mask>
<g mask="url(#mask0_446_299)">
<path id="mail_2" d="M3.75577 15.5831C3.39038 15.5831 3.07574 15.4512 2.81185 15.1873C2.54796 14.9234 2.41602 14.6088 2.41602 14.2434V5.75625C2.41602 5.39087 2.54796 5.07623 2.81185 4.81234C3.07574 4.54845 3.39038 4.4165 3.75577 4.4165H16.2429C16.6222 4.4165 16.9403 4.54845 17.1972 4.81234C17.4542 5.07623 17.5826 5.39087 17.5826 5.75625V14.2434C17.5826 14.6088 17.4542 14.9234 17.1972 15.1873C16.9403 15.4512 16.6222 15.5831 16.2429 15.5831H3.75577ZM9.99933 10.6312L16.4993 6.80588L16.3711 5.49982L9.99933 9.22898L3.62754 5.49982L3.49933 6.80588L9.99933 10.6312Z" fill="#D4C5D7"/>
</g>
</g>
</svg>
