<svg width="20" height="20" viewBox="0 0 20 20" fill="none" xmlns="http://www.w3.org/2000/svg">
<g id="person">
<mask id="mask0_446_293" style="mask-type:alpha" maskUnits="userSpaceOnUse" x="0" y="0" width="20" height="20">
<rect id="Bounding box" width="20" height="20" fill="#F7F3F8"/>
</mask>
<g mask="url(#mask0_446_293)">
<path id="person_2" d="M9.99933 9.74375C9.28059 9.74375 8.67036 9.49289 8.16862 8.99117C7.66688 8.48943 7.41602 7.8792 7.41602 7.16046C7.41602 6.44171 7.66688 5.83147 8.16862 5.32975C8.67036 4.82802 9.28059 4.57715 9.99933 4.57715C10.7181 4.57715 11.3283 4.82802 11.83 5.32975C12.3318 5.83147 12.5826 6.44171 12.5826 7.16046C12.5826 7.8792 12.3318 8.48943 11.83 8.99117C11.3283 9.49289 10.7181 9.74375 9.99933 9.74375ZM4.41602 15.4232V13.904C4.41602 13.6487 4.49214 13.4027 4.64439 13.1661C4.79663 12.9294 5.00949 12.7246 5.28299 12.5515C6.00949 12.1337 6.77445 11.8135 7.57787 11.5908C8.38129 11.368 9.18844 11.2566 9.99933 11.2566C10.8102 11.2566 11.6174 11.368 12.4208 11.5908C13.2242 11.8135 13.9892 12.1337 14.7157 12.5515C14.9892 12.7107 15.202 12.9121 15.3543 13.1556C15.5065 13.3992 15.5826 13.6487 15.5826 13.904V15.4232H4.41602Z" fill="#D4C5D7"/>
</g>
</g>
</svg>
